<svg version="1.1" id="Layer_1" xmlns="http://www.w3.org/2000/svg" xmlns:xlink="http://www.w3.org/1999/xlink" x="0px" y="0px"
	 width="100%" viewBox="0 0 1019 236" enable-background="new 0 0 1019 236" xml:space="preserve">
<path fill="#FEFEFF" opacity="1.000000" stroke="none" 
	d="
M702.000000,237.000000 
	C468.000000,237.000000 234.500000,237.000000 1.000000,237.000000 
	C1.000000,158.333328 1.000000,79.666664 1.000000,1.000000 
	C340.666656,1.000000 680.333313,1.000000 1020.000000,1.000000 
	C1020.000000,79.666664 1020.000000,158.333328 1020.000000,237.000000 
	C914.166687,237.000000 808.333313,237.000000 702.000000,237.000000 
M223.305588,149.148834 
	C210.930298,115.486023 198.616028,81.800491 186.101532,48.189510 
	C184.559662,44.048454 182.520279,39.835831 179.740540,36.454548 
	C162.807083,15.856537 120.110664,18.114893 109.151764,49.211662 
	C90.610878,101.822922 70.966774,154.045364 51.800735,206.436478 
	C51.320686,207.748718 51.006927,209.121796 50.506962,210.839859 
	C65.155594,210.839859 79.142052,210.944809 93.121712,210.684570 
	C94.589790,210.657242 96.790421,208.757431 97.340225,207.248642 
	C101.197227,196.664124 104.709839,185.954102 108.369705,175.174850 
	C134.470474,175.174850 160.425491,175.174850 186.727966,175.174850 
	C190.603348,187.011414 194.498337,198.907852 198.304550,210.533173 
	C214.430222,210.533173 229.962265,210.533173 245.887939,210.533173 
	C238.385895,190.036636 231.029770,169.938766 223.305588,149.148834 
M851.052124,41.542370 
	C833.521484,59.991550 830.491333,81.679565 839.515381,104.427162 
	C847.890625,125.539162 866.127319,134.193970 887.788879,135.776016 
	C898.562988,136.562897 909.438721,135.893082 920.266663,136.029037 
	C928.212036,136.128815 934.488770,139.446152 938.083374,146.706146 
	C944.499268,159.664429 935.170166,173.682129 919.936890,173.785187 
	C896.113037,173.946335 872.287354,173.829361 848.462402,173.830170 
	C846.677368,173.830231 844.892334,173.830170 843.021545,173.830170 
	C843.021545,186.379196 843.021545,198.420258 843.021545,210.499115 
	C843.819702,210.650299 844.293762,210.818466 844.767761,210.818634 
	C872.424561,210.828232 900.082703,210.984344 927.737549,210.750214 
	C940.678345,210.640656 952.768616,207.180618 962.960571,198.768265 
	C978.165649,186.218201 983.474670,169.372498 983.202332,150.374954 
	C982.807312,122.806717 965.716980,102.644920 938.441223,99.050888 
	C925.148376,97.299339 911.530884,98.125450 898.085083,97.353333 
	C893.928345,97.114632 889.334045,96.326675 885.852478,94.256065 
	C879.256104,90.332970 877.042664,82.309700 879.329712,74.952988 
	C881.574890,67.730850 888.147705,63.044590 896.480042,63.023636 
	C919.804993,62.964970 943.130188,63.002625 966.455322,63.002277 
	C968.200867,63.002251 969.946411,63.002277 971.529175,63.002277 
	C971.529175,50.326344 971.529175,38.414600 971.529175,26.353510 
	C970.391968,26.274200 969.582092,26.168604 968.772156,26.168350 
	C942.947937,26.160259 917.123169,26.067823 891.299622,26.199121 
	C876.296814,26.275402 862.840515,30.828453 851.052124,41.542370 
M436.520447,28.947729 
	C399.168060,40.545715 384.891815,88.581284 417.280640,117.112892 
	C416.488525,117.742630 415.664825,118.301651 414.952332,118.977859 
	C397.697266,135.353943 393.218597,160.407700 404.505493,181.188843 
	C415.561005,201.543930 433.505005,210.701706 456.293091,210.817734 
	C479.958221,210.938248 503.624420,210.848480 527.290161,210.834335 
	C528.570862,210.833557 529.851501,210.682098 531.348633,210.587021 
	C531.348633,198.208328 531.348633,186.130325 531.348633,173.467026 
	C529.145935,173.467026 527.196960,173.475800 525.248108,173.465668 
	C503.087677,173.350418 480.923218,173.437180 458.769073,173.000870 
	C451.279327,172.853363 446.052917,168.263397 443.469208,161.290924 
	C440.903809,154.367844 441.983246,147.930191 447.124146,142.292923 
	C451.890228,137.066681 457.934387,135.510834 464.683167,135.522766 
	C482.182434,135.553711 499.681763,135.533051 517.181091,135.532974 
	C518.934509,135.532974 520.687866,135.532974 522.368164,135.532974 
	C522.368164,122.787041 522.368164,110.865005 522.368164,98.467018 
	C520.255615,98.467018 518.458984,98.471100 516.662292,98.466400 
	C497.331421,98.415787 477.998352,98.515045 458.670685,98.239502 
	C450.670868,98.125450 444.408905,92.476822 442.745392,84.888168 
	C440.219757,73.366646 448.631989,63.144691 461.113190,63.052567 
	C482.777802,62.892647 504.444489,63.006611 526.110291,63.005737 
	C527.853638,63.005669 529.597046,63.005726 531.280945,63.005726 
	C531.280945,50.344627 531.280945,38.420593 531.280945,26.373070 
	C530.150452,26.284199 529.338928,26.164951 528.527405,26.164665 
	C503.861694,26.155964 479.194244,26.001507 454.531616,26.277220 
	C448.778748,26.341534 443.042297,27.873013 436.520447,28.947729 
M255.864349,101.499969 
	C255.864349,137.784760 255.864349,174.069565 255.864349,210.595718 
	C270.755127,210.595718 285.159485,210.595718 300.156799,210.595718 
	C300.156799,188.503464 300.156799,166.628571 300.156799,144.403107 
	C324.370026,144.403107 347.992828,144.403107 371.753601,144.403107 
	C371.753601,132.136047 371.753601,120.233116 371.753601,107.863121 
	C347.767609,107.863121 324.036377,107.863121 300.039307,107.863121 
	C300.039307,99.088936 300.006256,90.780922 300.047058,82.473267 
	C300.107147,70.243767 307.378967,63.026379 319.680054,63.008701 
	C338.512177,62.981636 357.344391,63.001572 376.176544,63.001556 
	C377.757019,63.001556 379.337494,63.001560 380.705566,63.001560 
	C380.705566,50.339218 380.705566,38.411663 380.705566,26.160742 
	C371.422974,26.160742 362.452209,26.078270 353.483521,26.178650 
	C336.995209,26.363190 320.453491,25.899387 304.033569,27.084599 
	C280.952271,28.750639 260.647400,47.469711 257.116516,70.122566 
	C255.565735,80.071709 256.214355,90.363663 255.864349,101.499969 
M813.719849,27.980278 
	C812.082458,27.373190 810.446655,26.241619 808.807373,26.236444 
	C775.988342,26.132820 743.169006,26.155886 710.349670,26.169649 
	C708.920654,26.170248 707.491699,26.325989 706.120483,26.406086 
	C706.120483,38.805656 706.120483,50.729012 706.120483,63.178413 
	C716.762878,63.178413 727.151917,63.178413 737.472351,63.178413 
	C737.472351,100.274651 737.472351,136.839676 737.472351,173.982330 
	C726.785156,173.982330 716.405945,173.982330 706.106323,173.982330 
	C706.106323,186.498383 706.106323,198.433243 706.106323,210.463547 
	C742.044617,210.463547 777.731262,210.463547 813.485168,210.463547 
	C813.485168,198.158081 813.485168,186.231750 813.485168,173.725220 
	C802.848633,173.725220 792.453857,173.725220 782.068848,173.725220 
	C782.068848,136.558929 782.068848,99.976089 782.068848,62.853966 
	C792.689636,62.853966 803.075500,62.853966 813.740967,62.853966 
	C813.740967,51.177998 813.740967,40.040051 813.719849,27.980278 
M640.105103,139.499939 
	C640.105103,114.078758 640.105103,88.657585 640.105103,62.913311 
	C657.030823,62.913311 673.301453,62.913311 689.671753,62.913311 
	C689.671753,50.541313 689.671753,38.500401 689.671753,26.477692 
	C641.609680,26.477692 593.876404,26.477692 546.056641,26.477692 
	C546.056641,38.722301 546.056641,50.649712 546.056641,63.014175 
	C562.685242,63.014175 579.096680,63.014175 595.937866,63.014175 
	C595.937866,65.233284 595.936157,67.021339 595.938110,68.809402 
	C595.970276,98.469246 595.747803,128.132477 596.142456,157.787521 
	C596.341553,172.746002 602.502563,185.432770 613.379456,195.845688 
	C629.221924,211.012421 648.775085,211.601700 668.992065,210.587006 
	C668.992065,198.242645 668.992065,186.194031 668.992065,173.830933 
	C664.694702,173.830933 660.721008,173.864166 656.748047,173.824524 
	C646.088867,173.718155 640.208069,167.777618 640.113770,156.996216 
	C640.065674,151.497818 640.105225,145.998657 640.105103,139.499939 
z"/>
<path fill="#1A02AE" opacity="1.000000" stroke="none" 
	d="
M223.489624,149.494873 
	C231.029770,169.938766 238.385895,190.036636 245.887939,210.533173 
	C229.962265,210.533173 214.430222,210.533173 198.304550,210.533173 
	C194.498337,198.907852 190.603348,187.011414 186.727966,175.174850 
	C160.425491,175.174850 134.470474,175.174850 108.369705,175.174850 
	C104.709839,185.954102 101.197227,196.664124 97.340225,207.248642 
	C96.790421,208.757431 94.589790,210.657242 93.121712,210.684570 
	C79.142052,210.944809 65.155594,210.839859 50.506962,210.839859 
	C51.006927,209.121796 51.320686,207.748718 51.800735,206.436478 
	C70.966774,154.045364 90.610878,101.822922 109.151764,49.211662 
	C120.110664,18.114893 162.807083,15.856537 179.740540,36.454548 
	C182.520279,39.835831 184.559662,44.048454 186.101532,48.189510 
	C198.616028,81.800491 210.930298,115.486023 223.489624,149.494873 
M155.499146,138.516403 
	C161.921051,138.516403 168.342957,138.516403 174.887054,138.516403 
	C174.836349,137.440002 174.916168,136.933624 174.777054,136.497009 
	C167.415482,113.393913 160.101746,90.274933 152.540314,67.237274 
	C151.885040,65.240875 149.581741,63.785389 148.043961,62.078648 
	C146.704468,63.771824 144.783524,65.263031 144.114502,67.189102 
	C136.596313,88.833366 129.270004,110.544289 121.894310,132.238052 
	C121.226990,134.200821 120.574837,136.168762 119.787552,138.516205 
	C131.856522,138.516205 143.177994,138.516205 155.499146,138.516403 
z"/>
<path fill="#1A02AE" opacity="1.000000" stroke="none" 
	d="
M851.316040,41.306751 
	C862.840515,30.828453 876.296814,26.275402 891.299622,26.199121 
	C917.123169,26.067823 942.947937,26.160259 968.772156,26.168350 
	C969.582092,26.168604 970.391968,26.274200 971.529175,26.353510 
	C971.529175,38.414600 971.529175,50.326344 971.529175,63.002277 
	C969.946411,63.002277 968.200867,63.002251 966.455322,63.002277 
	C943.130188,63.002625 919.804993,62.964970 896.480042,63.023636 
	C888.147705,63.044590 881.574890,67.730850 879.329712,74.952988 
	C877.042664,82.309700 879.256104,90.332970 885.852478,94.256065 
	C889.334045,96.326675 893.928345,97.114632 898.085083,97.353333 
	C911.530884,98.125450 925.148376,97.299339 938.441223,99.050888 
	C965.716980,102.644920 982.807312,122.806717 983.202332,150.374954 
	C983.474670,169.372498 978.165649,186.218201 962.960571,198.768265 
	C952.768616,207.180618 940.678345,210.640656 927.737549,210.750214 
	C900.082703,210.984344 872.424561,210.828232 844.767761,210.818634 
	C844.293762,210.818466 843.819702,210.650299 843.021545,210.499115 
	C843.021545,198.420258 843.021545,186.379196 843.021545,173.830170 
	C844.892334,173.830170 846.677368,173.830231 848.462402,173.830170 
	C872.287354,173.829361 896.113037,173.946335 919.936890,173.785187 
	C935.170166,173.682129 944.499268,159.664429 938.083374,146.706146 
	C934.488770,139.446152 928.212036,136.128815 920.266663,136.029037 
	C909.438721,135.893082 898.562988,136.562897 887.788879,135.776016 
	C866.127319,134.193970 847.890625,125.539162 839.515381,104.427162 
	C830.491333,81.679565 833.521484,59.991550 851.316040,41.306751 
z"/>
<path fill="#1B04AE" opacity="1.000000" stroke="none" 
	d="
M436.909363,28.838587 
	C443.042297,27.873013 448.778748,26.341534 454.531616,26.277220 
	C479.194244,26.001507 503.861694,26.155964 528.527405,26.164665 
	C529.338928,26.164951 530.150452,26.284199 531.280945,26.373070 
	C531.280945,38.420593 531.280945,50.344627 531.280945,63.005726 
	C529.597046,63.005726 527.853638,63.005669 526.110291,63.005737 
	C504.444489,63.006611 482.777802,62.892647 461.113190,63.052567 
	C448.631989,63.144691 440.219757,73.366646 442.745392,84.888168 
	C444.408905,92.476822 450.670868,98.125450 458.670685,98.239502 
	C477.998352,98.515045 497.331421,98.415787 516.662292,98.466400 
	C518.458984,98.471100 520.255615,98.467018 522.368164,98.467018 
	C522.368164,110.865005 522.368164,122.787041 522.368164,135.532974 
	C520.687866,135.532974 518.934509,135.532974 517.181091,135.532974 
	C499.681763,135.533051 482.182434,135.553711 464.683167,135.522766 
	C457.934387,135.510834 451.890228,137.066681 447.124146,142.292923 
	C441.983246,147.930191 440.903809,154.367844 443.469208,161.290924 
	C446.052917,168.263397 451.279327,172.853363 458.769073,173.000870 
	C480.923218,173.437180 503.087677,173.350418 525.248108,173.465668 
	C527.196960,173.475800 529.145935,173.467026 531.348633,173.467026 
	C531.348633,186.130325 531.348633,198.208328 531.348633,210.587021 
	C529.851501,210.682098 528.570862,210.833557 527.290161,210.834335 
	C503.624420,210.848480 479.958221,210.938248 456.293091,210.817734 
	C433.505005,210.701706 415.561005,201.543930 404.505493,181.188843 
	C393.218597,160.407700 397.697266,135.353943 414.952332,118.977859 
	C415.664825,118.301651 416.488525,117.742630 417.280640,117.112892 
	C384.891815,88.581284 399.168060,40.545715 436.909363,28.838587 
z"/>
<path fill="#1901AD" opacity="1.000000" stroke="none" 
	d="
M255.864349,100.999969 
	C256.214355,90.363663 255.565735,80.071709 257.116516,70.122566 
	C260.647400,47.469711 280.952271,28.750639 304.033569,27.084599 
	C320.453491,25.899387 336.995209,26.363190 353.483521,26.178650 
	C362.452209,26.078270 371.422974,26.160742 380.705566,26.160742 
	C380.705566,38.411663 380.705566,50.339218 380.705566,63.001560 
	C379.337494,63.001560 377.757019,63.001556 376.176544,63.001556 
	C357.344391,63.001572 338.512177,62.981636 319.680054,63.008701 
	C307.378967,63.026379 300.107147,70.243767 300.047058,82.473267 
	C300.006256,90.780922 300.039307,99.088936 300.039307,107.863121 
	C324.036377,107.863121 347.767609,107.863121 371.753601,107.863121 
	C371.753601,120.233116 371.753601,132.136047 371.753601,144.403107 
	C347.992828,144.403107 324.370026,144.403107 300.156799,144.403107 
	C300.156799,166.628571 300.156799,188.503464 300.156799,210.595718 
	C285.159485,210.595718 270.755127,210.595718 255.864349,210.595718 
	C255.864349,174.069565 255.864349,137.784760 255.864349,100.999969 
z"/>
<path fill="#1A02AE" opacity="1.000000" stroke="none" 
	d="
M813.730408,28.441189 
	C813.740967,40.040051 813.740967,51.177998 813.740967,62.853966 
	C803.075500,62.853966 792.689636,62.853966 782.068848,62.853966 
	C782.068848,99.976089 782.068848,136.558929 782.068848,173.725220 
	C792.453857,173.725220 802.848633,173.725220 813.485168,173.725220 
	C813.485168,186.231750 813.485168,198.158081 813.485168,210.463547 
	C777.731262,210.463547 742.044617,210.463547 706.106323,210.463547 
	C706.106323,198.433243 706.106323,186.498383 706.106323,173.982330 
	C716.405945,173.982330 726.785156,173.982330 737.472351,173.982330 
	C737.472351,136.839676 737.472351,100.274651 737.472351,63.178413 
	C727.151917,63.178413 716.762878,63.178413 706.120483,63.178413 
	C706.120483,50.729012 706.120483,38.805656 706.120483,26.406086 
	C707.491699,26.325989 708.920654,26.170248 710.349670,26.169649 
	C743.169006,26.155886 775.988342,26.132820 808.807373,26.236444 
	C810.446655,26.241619 812.082458,27.373190 813.730408,28.441189 
z"/>
<path fill="#1901AD" opacity="1.000000" stroke="none" 
	d="
M640.105103,139.999878 
	C640.105225,145.998657 640.065674,151.497818 640.113770,156.996216 
	C640.208069,167.777618 646.088867,173.718155 656.748047,173.824524 
	C660.721008,173.864166 664.694702,173.830933 668.992065,173.830933 
	C668.992065,186.194031 668.992065,198.242645 668.992065,210.587006 
	C648.775085,211.601700 629.221924,211.012421 613.379456,195.845688 
	C602.502563,185.432770 596.341553,172.746002 596.142456,157.787521 
	C595.747803,128.132477 595.970276,98.469246 595.938110,68.809402 
	C595.936157,67.021339 595.937866,65.233284 595.937866,63.014175 
	C579.096680,63.014175 562.685242,63.014175 546.056641,63.014175 
	C546.056641,50.649712 546.056641,38.722301 546.056641,26.477692 
	C593.876404,26.477692 641.609680,26.477692 689.671753,26.477692 
	C689.671753,38.500401 689.671753,50.541313 689.671753,62.913311 
	C673.301453,62.913311 657.030823,62.913311 640.105103,62.913311 
	C640.105103,88.657585 640.105103,114.078758 640.105103,139.999878 
z"/>
<path fill="#FDFDFE" opacity="1.000000" stroke="none" 
	d="
M154.999298,138.516296 
	C143.177994,138.516205 131.856522,138.516205 119.787552,138.516205 
	C120.574837,136.168762 121.226990,134.200821 121.894310,132.238052 
	C129.270004,110.544289 136.596313,88.833366 144.114502,67.189102 
	C144.783524,65.263031 146.704468,63.771824 148.043961,62.078644 
	C149.581741,63.785389 151.885040,65.240875 152.540314,67.237274 
	C160.101746,90.274933 167.415482,113.393913 174.777054,136.497009 
	C174.916168,136.933624 174.836349,137.440002 174.887054,138.516403 
	C168.342957,138.516403 161.921051,138.516403 154.999298,138.516296 
z"/>
</svg>