<svg version="1.1" id="Layer_1" xmlns="http://www.w3.org/2000/svg" xmlns:xlink="http://www.w3.org/1999/xlink" x="0px" y="0px"
	 width="100%" viewBox="0 0 500 500" enable-background="new 0 0 500 500" xml:space="preserve">
<path fill="#001C30" opacity="1.000000" stroke="none" 
	d="
M316.000000,501.000000 
	C210.666687,501.000000 105.833382,501.000000 1.000056,501.000000 
	C1.000037,334.333405 1.000037,167.666794 1.000019,1.000146 
	C167.666565,1.000097 334.333130,1.000097 500.999756,1.000049 
	C500.999847,167.666519 500.999847,334.333038 500.999939,500.999786 
	C439.500000,501.000000 378.000000,501.000000 316.000000,501.000000 
M231.418488,321.861633 
	C231.418488,317.578949 231.418488,313.296234 231.418488,308.987183 
	C226.911743,309.313751 222.993469,309.597687 218.986099,308.962585 
	C219.652344,255.120193 214.503922,201.012512 227.015884,147.010880 
	C221.228851,147.010880 216.105179,147.010880 210.945679,146.211105 
	C211.900757,142.217560 212.855835,138.223999 213.906815,133.829468 
	C207.813370,133.829468 201.922043,134.429749 196.210037,133.674240 
	C189.402451,132.773804 186.109207,135.959198 183.920807,141.601730 
	C183.080978,143.767120 181.944321,145.817032 181.097137,147.979965 
	C179.496872,152.065674 178.008270,156.195129 176.473267,160.306396 
	C175.723129,160.821823 174.973007,161.337234 174.222885,161.852661 
	C173.533661,160.294617 173.114655,158.532303 172.114563,157.209229 
	C157.634506,138.052765 137.842026,130.212463 114.357719,129.991684 
	C75.445198,129.625916 48.342041,148.644638 35.681973,185.360550 
	C28.536787,206.082550 27.834131,227.515030 29.170200,249.028809 
	C31.048023,279.266083 40.633739,306.014404 66.073112,325.624756 
	C67.241905,327.014984 68.301949,328.516632 69.595604,329.778900 
	C93.953682,353.545502 131.931595,355.397095 157.992096,343.636505 
	C167.223831,339.470367 174.676376,331.361786 183.357132,325.573578 
	C186.906219,328.380432 190.455307,331.187286 194.127304,334.677277 
	C196.138138,337.294434 197.822922,340.266418 200.217178,342.466278 
	C209.721970,351.199158 231.410309,353.184174 242.617645,346.533661 
	C243.523773,345.995941 244.741608,344.949097 244.761230,344.114105 
	C244.930862,336.892670 244.858871,329.665588 244.858871,322.760284 
	C239.915512,322.760284 235.719452,322.760284 231.418488,321.861633 
M276.261414,293.074585 
	C274.539459,288.936432 272.290802,284.934387 271.180389,280.638153 
	C263.573425,251.206146 264.593353,222.270508 277.952606,194.570755 
	C282.550964,185.036362 288.677155,176.239395 294.093750,167.098648 
	C295.201904,165.228607 297.621216,163.363434 294.434570,161.280853 
	C290.143433,158.476410 285.803711,155.746292 281.719482,152.279007 
	C282.752563,150.685822 283.624695,149.419876 281.251740,147.858521 
	C273.538422,142.783325 266.000824,137.441071 258.521301,132.288239 
	C257.893311,132.726044 257.554749,132.863052 257.359375,133.112305 
	C234.607147,162.140656 220.262161,194.330872 220.119278,231.895355 
	C219.987534,266.533112 228.410461,297.463531 257.778442,320.088562 
	C259.071350,321.574249 260.253998,323.175751 261.674316,324.527588 
	C274.700348,336.925140 290.736755,343.132233 307.934906,346.956635 
	C310.811462,347.596252 313.633118,348.482635 316.569733,350.155060 
	C316.569733,374.133087 316.569733,398.111115 316.569733,422.227203 
	C321.544556,422.473145 325.815338,422.684265 330.035156,423.837250 
	C330.026886,426.503235 330.186310,429.183044 329.968231,431.831757 
	C329.690491,435.205475 331.182129,436.118652 334.341980,436.048553 
	C341.836700,435.882202 349.347839,435.762024 356.832092,436.087952 
	C361.118805,436.274658 362.108185,434.705780 362.081512,430.665619 
	C361.917755,405.838623 361.999786,381.009949 362.000000,356.181854 
	C362.000031,354.250122 362.000031,352.318390 362.000031,351.461243 
	C374.311707,348.507812 385.910614,346.699707 396.828217,342.922394 
	C428.656677,331.910187 449.611603,310.065460 458.288574,277.284363 
	C463.964142,255.842300 463.587799,234.030746 459.685028,212.368759 
	C456.480927,194.584625 449.895660,178.116562 437.372681,164.584976 
	C436.271637,163.395218 434.502869,162.823441 432.475769,161.613312 
	C420.228638,144.329544 404.834534,132.054794 382.781250,130.353668 
	C361.533875,128.714737 342.651031,133.298203 329.299805,151.429138 
	C320.291168,163.662827 316.988586,177.903091 316.871033,192.783493 
	C316.579163,229.725677 316.657349,266.670807 316.587646,303.614746 
	C316.584076,305.509949 316.587189,307.405151 316.587189,310.537292 
	C307.948608,308.160522 300.199768,306.746887 293.057343,303.842194 
	C287.052734,301.400238 281.754059,297.222351 276.261414,293.074585 
z"/>
<path fill="#96E3FE" opacity="1.000000" stroke="none" 
	d="
M330.086121,422.895386 
	C325.815338,422.684265 321.544556,422.473145 316.569733,422.227203 
	C316.569733,398.111115 316.569733,374.133087 316.617523,349.237793 
	C316.668213,346.000610 316.493958,343.663727 316.714264,341.364655 
	C317.072296,337.628021 315.786255,336.129547 311.811829,335.870514 
	C305.887512,335.484467 299.736450,335.116669 294.179901,333.254791 
	C281.873810,329.131317 269.877747,324.082672 257.755249,319.411346 
	C228.410461,297.463531 219.987534,266.533112 220.119278,231.895355 
	C220.262161,194.330872 234.607147,162.140656 257.359375,133.112305 
	C257.554749,132.863052 257.893311,132.726044 258.521301,132.288239 
	C266.000824,137.441071 273.538422,142.783325 281.251740,147.858521 
	C283.624695,149.419876 282.752563,150.685822 281.327698,152.781601 
	C265.789276,173.853577 255.090881,196.261368 253.404968,222.148163 
	C252.230606,240.180145 252.881653,258.113586 260.863373,274.843292 
	C264.417145,282.291992 268.536194,289.519073 276.142883,293.812958 
	C281.754059,297.222351 287.052734,301.400238 293.057343,303.842194 
	C300.199768,306.746887 307.948608,308.160522 316.587189,310.537292 
	C316.587189,307.405151 316.584076,305.509949 316.587646,303.614746 
	C316.657349,266.670807 316.579163,229.725677 316.871033,192.783493 
	C316.988586,177.903091 320.291168,163.662827 329.299805,151.429138 
	C342.651031,133.298203 361.533875,128.714737 382.781250,130.353668 
	C404.834534,132.054794 420.228638,144.329544 432.705933,162.149658 
	C434.315338,165.334229 435.774506,167.944244 437.061127,170.636703 
	C447.540283,192.565140 450.029816,215.898697 448.634827,239.765228 
	C447.736206,255.139587 444.712158,270.135468 437.251099,283.867523 
	C419.482880,316.569855 390.718140,332.033691 354.787689,335.762238 
	C349.804199,336.279388 348.464630,337.663300 348.515137,342.581787 
	C348.766418,367.050323 348.513306,391.523865 348.730103,415.993073 
	C348.772369,420.761322 347.909698,423.105225 342.530487,422.593628 
	C338.429016,422.203491 334.237549,422.760010 330.086121,422.895386 
M362.814026,306.973450 
	C388.558594,300.020569 405.255951,283.873718 412.198914,258.020630 
	C417.343445,238.864227 416.913696,219.514221 413.335419,200.179764 
	C411.515991,190.348969 408.898834,180.746597 402.015167,172.248550 
	C400.313629,170.221619 398.776764,168.023849 396.881989,166.197433 
	C388.860809,158.465897 379.361389,155.127899 368.538269,158.586838 
	C357.457062,162.128250 351.651825,170.580872 350.033142,181.822830 
	C349.182892,187.728195 348.710052,193.738892 348.688782,199.704239 
	C348.565826,234.159363 348.624023,268.615173 348.639954,303.070740 
	C348.640839,305.011383 348.811096,306.951996 348.944031,309.773376 
	C353.740417,308.729797 357.893585,307.826172 362.814026,306.973450 
z"/>
<path fill="#96E3FE" opacity="1.000000" stroke="none" 
	d="
M66.053650,324.935730 
	C40.633739,306.014404 31.048023,279.266083 29.170200,249.028809 
	C27.834131,227.515030 28.536787,206.082550 35.681973,185.360550 
	C48.342041,148.644638 75.445198,129.625916 114.357719,129.991684 
	C137.842026,130.212463 157.634506,138.052765 172.114563,157.209229 
	C173.114655,158.532303 173.533661,160.294617 174.222885,161.852661 
	C174.973007,161.337234 175.723129,160.821823 176.473267,160.306396 
	C178.008270,156.195129 179.496872,152.065674 181.097137,147.979965 
	C181.944321,145.817032 183.080978,143.767120 183.920807,141.601730 
	C186.109207,135.959198 189.402451,132.773804 196.210037,133.674240 
	C201.922043,134.429749 207.813370,133.829468 213.906815,133.829468 
	C212.855835,138.223999 211.900757,142.217560 210.769547,146.955444 
	C209.054504,160.583557 206.513123,173.440796 206.171265,186.356247 
	C205.272156,220.325500 205.315567,254.319946 205.034454,288.304810 
	C205.012527,290.955078 205.140945,293.654083 205.621475,296.252411 
	C207.252975,305.074432 210.838425,308.605988 219.075211,309.881622 
	C222.993469,309.597687 226.911743,309.313751 231.418488,308.987183 
	C231.418488,313.296234 231.418488,317.578949 231.382294,322.769806 
	C231.351852,333.353577 231.322800,333.240784 221.796173,335.694794 
	C212.308670,338.138733 203.130692,336.796356 194.004410,333.994110 
	C190.455307,331.187286 186.906219,328.380432 183.055878,324.980316 
	C180.611649,319.732788 178.499481,315.063965 176.305573,310.433838 
	C175.704849,309.166077 174.859024,308.014404 174.125656,306.809479 
	C172.843399,307.688904 171.220154,308.310028 170.329239,309.485962 
	C152.384933,333.171021 127.621033,338.953278 99.738426,336.381561 
	C87.638443,335.265533 76.618622,330.705383 66.053650,324.935730 
M86.400391,301.569336 
	C94.922050,307.961884 104.843834,309.559296 115.104118,309.774445 
	C146.086075,310.424042 163.005585,297.897034 169.329742,268.308380 
	C174.389267,244.636475 174.231888,220.681747 168.298172,197.143036 
	C166.446152,189.796173 162.106918,183.076309 158.919418,175.375259 
	C156.552917,172.852112 154.470062,169.963394 151.770859,167.869034 
	C140.018509,158.750183 126.163307,157.418350 111.999626,157.993332 
	C93.462273,158.745850 79.761963,167.216278 71.679901,184.209427 
	C64.582130,199.133041 62.867752,215.077759 62.654373,231.317261 
	C62.443699,247.350861 63.249542,263.265228 69.013908,278.468658 
	C72.470863,287.586304 77.062912,295.961456 86.400391,301.569336 
z"/>
<path fill="#3C6C83" opacity="1.000000" stroke="none" 
	d="
M330.060638,423.366333 
	C334.237549,422.760010 338.429016,422.203491 342.530487,422.593628 
	C347.909698,423.105225 348.772369,420.761322 348.730103,415.993073 
	C348.513306,391.523865 348.766418,367.050323 348.515137,342.581787 
	C348.464630,337.663300 349.804199,336.279388 354.787689,335.762238 
	C390.718140,332.033691 419.482880,316.569855 437.251099,283.867523 
	C444.712158,270.135468 447.736206,255.139587 448.634827,239.765228 
	C450.029816,215.898697 447.540283,192.565140 437.061127,170.636703 
	C435.774506,167.944244 434.315338,165.334229 432.990173,162.325317 
	C434.502869,162.823441 436.271637,163.395218 437.372681,164.584976 
	C449.895660,178.116562 456.480927,194.584625 459.685028,212.368759 
	C463.587799,234.030746 463.964142,255.842300 458.288574,277.284363 
	C449.611603,310.065460 428.656677,331.910187 396.828217,342.922394 
	C385.910614,346.699707 374.311707,348.507812 362.000031,351.461243 
	C362.000031,352.318390 362.000031,354.250122 362.000000,356.181854 
	C361.999786,381.009949 361.917755,405.838623 362.081512,430.665619 
	C362.108185,434.705780 361.118805,436.274658 356.832092,436.087952 
	C349.347839,435.762024 341.836700,435.882202 334.341980,436.048553 
	C331.182129,436.118652 329.690491,435.205475 329.968231,431.831757 
	C330.186310,429.183044 330.026886,426.503235 330.060638,423.366333 
z"/>
<path fill="#3C6C83" opacity="1.000000" stroke="none" 
	d="
M219.030655,309.422119 
	C210.838425,308.605988 207.252975,305.074432 205.621475,296.252411 
	C205.140945,293.654083 205.012527,290.955078 205.034454,288.304810 
	C205.315567,254.319946 205.272156,220.325500 206.171265,186.356247 
	C206.513123,173.440796 209.054504,160.583557 210.787460,147.355347 
	C216.105179,147.010880 221.228851,147.010880 227.015884,147.010880 
	C214.503922,201.012512 219.652344,255.120193 219.030655,309.422119 
z"/>
<path fill="#3C6C83" opacity="1.000000" stroke="none" 
	d="
M276.202148,293.443787 
	C268.536194,289.519073 264.417145,282.291992 260.863373,274.843292 
	C252.881653,258.113586 252.230606,240.180145 253.404968,222.148163 
	C255.090881,196.261368 265.789276,173.853577 281.210388,153.134232 
	C285.803711,155.746292 290.143433,158.476410 294.434570,161.280853 
	C297.621216,163.363434 295.201904,165.228607 294.093750,167.098648 
	C288.677155,176.239395 282.550964,185.036362 277.952606,194.570755 
	C264.593353,222.270508 263.573425,251.206146 271.180389,280.638153 
	C272.290802,284.934387 274.539459,288.936432 276.202148,293.443787 
z"/>
<path fill="#3C6C83" opacity="1.000000" stroke="none" 
	d="
M66.063385,325.280243 
	C76.618622,330.705383 87.638443,335.265533 99.738426,336.381561 
	C127.621033,338.953278 152.384933,333.171021 170.329239,309.485962 
	C171.220154,308.310028 172.843399,307.688904 174.125656,306.809479 
	C174.859024,308.014404 175.704849,309.166077 176.305573,310.433838 
	C178.499481,315.063965 180.611649,319.732788 182.847885,324.720062 
	C174.676376,331.361786 167.223831,339.470367 157.992096,343.636505 
	C131.931595,355.397095 93.953682,353.545502 69.595604,329.778900 
	C68.301949,328.516632 67.241905,327.014984 66.063385,325.280243 
z"/>
<path fill="#3C6C83" opacity="1.000000" stroke="none" 
	d="
M194.065857,334.335693 
	C203.130692,336.796356 212.308670,338.138733 221.796173,335.694794 
	C231.322800,333.240784 231.351852,333.353577 231.434753,323.219116 
	C235.719452,322.760284 239.915512,322.760284 244.858871,322.760284 
	C244.858871,329.665588 244.930862,336.892670 244.761230,344.114105 
	C244.741608,344.949097 243.523773,345.995941 242.617645,346.533661 
	C231.410309,353.184174 209.721970,351.199158 200.217178,342.466278 
	C197.822922,340.266418 196.138138,337.294434 194.065857,334.335693 
z"/>
<path fill="#407188" opacity="1.000000" stroke="none" 
	d="
M257.766846,319.749939 
	C269.877747,324.082672 281.873810,329.131317 294.179901,333.254791 
	C299.736450,335.116669 305.887512,335.484467 311.811829,335.870514 
	C315.786255,336.129547 317.072296,337.628021 316.714264,341.364655 
	C316.493958,343.663727 316.668213,346.000610 316.572723,348.787750 
	C313.633118,348.482635 310.811462,347.596252 307.934906,346.956635 
	C290.736755,343.132233 274.700348,336.925140 261.674316,324.527588 
	C260.253998,323.175751 259.071350,321.574249 257.766846,319.749939 
z"/>
<path fill="#011D31" opacity="1.000000" stroke="none" 
	d="
M402.074707,172.936676 
	C408.898834,180.746597 411.515991,190.348969 413.335419,200.179764 
	C416.913696,219.514221 417.343445,238.864227 412.198914,258.020630 
	C405.255951,283.873718 388.558594,300.020569 362.413788,306.484589 
	C362.008484,274.541199 361.959198,243.086563 362.045258,211.632278 
	C362.058411,206.826675 362.412933,201.981918 363.097107,197.225388 
	C365.631531,179.605820 376.558777,169.838196 392.345093,171.045731 
	C395.617371,171.296036 398.832977,172.287048 402.074707,172.936676 
z"/>
<path fill="#3C6C83" opacity="1.000000" stroke="none" 
	d="
M402.044922,172.592621 
	C398.832977,172.287048 395.617371,171.296036 392.345093,171.045731 
	C376.558777,169.838196 365.631531,179.605820 363.097107,197.225388 
	C362.412933,201.981918 362.058411,206.826675 362.045258,211.632278 
	C361.959198,243.086563 362.008484,274.541199 362.030151,306.459137 
	C357.893585,307.826172 353.740417,308.729797 348.944031,309.773376 
	C348.811096,306.951996 348.640839,305.011383 348.639954,303.070740 
	C348.624023,268.615173 348.565826,234.159363 348.688782,199.704239 
	C348.710052,193.738892 349.182892,187.728195 350.033142,181.822830 
	C351.651825,170.580872 357.457062,162.128250 368.538269,158.586838 
	C379.361389,155.127899 388.860809,158.465897 396.881989,166.197433 
	C398.776764,168.023849 400.313629,170.221619 402.044922,172.592621 
z"/>
<path fill="#001D31" opacity="1.000000" stroke="none" 
	d="
M158.906235,176.069427 
	C162.106918,183.076309 166.446152,189.796173 168.298172,197.143036 
	C174.231888,220.681747 174.389267,244.636475 169.329742,268.308380 
	C163.005585,297.897034 146.086075,310.424042 115.104118,309.774445 
	C104.843834,309.559296 94.922050,307.961884 86.164772,300.940063 
	C79.989189,288.001068 77.195908,274.897888 76.403252,261.352783 
	C75.240929,241.490585 75.926117,221.783920 82.903290,202.831787 
	C90.529182,182.117477 106.134598,170.677582 128.138443,171.251801 
	C138.429260,171.520355 148.652420,174.382675 158.906235,176.069427 
z"/>
<path fill="#3C6C83" opacity="1.000000" stroke="none" 
	d="
M158.912827,175.722351 
	C148.652420,174.382675 138.429260,171.520355 128.138443,171.251801 
	C106.134598,170.677582 90.529182,182.117477 82.903290,202.831787 
	C75.926117,221.783920 75.240929,241.490585 76.403252,261.352783 
	C77.195908,274.897888 79.989189,288.001068 85.945511,300.678436 
	C77.062912,295.961456 72.470863,287.586304 69.013908,278.468658 
	C63.249542,263.265228 62.443699,247.350861 62.654373,231.317261 
	C62.867752,215.077759 64.582130,199.133041 71.679901,184.209427 
	C79.761963,167.216278 93.462273,158.745850 111.999626,157.993332 
	C126.163307,157.418350 140.018509,158.750183 151.770859,167.869034 
	C154.470062,169.963394 156.552917,172.852112 158.912827,175.722351 
z"/>
</svg>